<svg xmlns="http://www.w3.org/2000/svg" viewBox="0 0 640 480" role="img" aria-labelledby="t d"><title id="t">Scripture editorial illustration</title><desc id="d">Open illuminated Bible with rays and manuscript details.</desc><defs><linearGradient id="bg" x1="0" y1="0" x2="1" y2="1"><stop stop-color="#f8efd9"/><stop offset="1" stop-color="#d9c39b"/></linearGradient></defs><rect width="640" height="480" rx="36" fill="url(#bg)"/><circle cx="320" cy="195" r="135" fill="#d4ae59" opacity=".14"/><path d="M320 85v60M229 118l36 48M411 118l-36 48M183 192l58 15M457 192l-58 15" stroke="#b18432" stroke-width="8" stroke-linecap="round" opacity=".55"/><path d="M95 154c76-28 145-18 225 34v218c-88-47-158-55-225-25Z" fill="#fffaf0" stroke="#173553" stroke-width="8"/><path d="M545 154c-76-28-145-18-225 34v218c88-47 158-55 225-25Z" fill="#fffaf0" stroke="#173553" stroke-width="8"/><path d="M320 188v218" stroke="#b48337" stroke-width="6"/><path d="M132 208h129M132 234h142M132 260h119M132 286h137M132 312h102" stroke="#b8a589" stroke-width="7" stroke-linecap="round"/><path d="M508 208H379M508 234H366M508 260H389M508 286H372M508 312H405" stroke="#b8a589" stroke-width="7" stroke-linecap="round"/><path d="M178 347c18-31 45-49 82-53" stroke="#bb8a39" stroke-width="6" fill="none"/><path d="M462 347c-18-31-45-49-82-53" stroke="#bb8a39" stroke-width="6" fill="none"/><text x="58" y="72" font-family="Georgia,serif" font-size="34" fill="#122f4d">SCRIPTURE</text><text x="60" y="104" font-family="Arial,sans-serif" font-size="16" letter-spacing="4" fill="#6e624d">WORD · PEOPLE · PLACES</text></svg>